<?xml version="1.0" encoding="utf-8"?>
<!-- Generator: Adobe Illustrator 21.1.0, SVG Export Plug-In . SVG Version: 6.00 Build 0)  -->
<svg version="1.1" id="Слой_1" xmlns="http://www.w3.org/2000/svg" xmlns:xlink="http://www.w3.org/1999/xlink" x="0px" y="0px"
	 viewBox="0 0 64 72" style="enable-background:new 0 0 64 72;" xml:space="preserve">
<style type="text/css">
	.st0{fill:#FEFEFE;}
</style>
<g>
	<path class="st0" d="M0.9,62.2v-8.3h8.8v2.2H3.5v1.4h6v2.2h-6v2.6H0.9z M14.3,67.8c0,1,0.1,1.5,0.3,1.7c0.2,0.2,0.9,0.3,2,0.3
		c1.1,0,1.8-0.1,2-0.2c0.2-0.1,0.3-0.5,0.3-1.2h-2.6v-0.7h3.3v0.7c0,0.9-0.2,1.5-0.6,1.7c-0.4,0.3-1.2,0.4-2.6,0.4
		c-1.4,0-2.2-0.1-2.6-0.5c-0.4-0.3-0.5-1-0.5-2.3c0-1.2,0.2-2,0.5-2.2c0.3-0.3,1.2-0.5,2.6-0.5c1.4,0,2.2,0.1,2.6,0.3
		s0.6,0.7,0.6,1.5H19c0-0.5-0.1-0.8-0.4-0.9c-0.3-0.1-0.9-0.1-2-0.1c-1.1,0-1.8,0.1-2,0.3C14.4,66.2,14.3,66.8,14.3,67.8L14.3,67.8z
		 M21.3,65.1H26c0.5,0,0.8,0.2,1,0.5c0.2,0.3,0.4,0.7,0.4,1.2c0,0.4-0.1,0.8-0.2,1c-0.1,0.2-0.3,0.3-0.5,0.4
		c0.2,0.1,0.3,0.2,0.4,0.3c0.2,0.2,0.3,0.4,0.3,0.7v1.3h-0.8v-1.3c0-0.2-0.1-0.3-0.3-0.5s-0.4-0.2-0.6-0.2h-3.7v1.9h-0.8V65.1z
		 M22.1,67.8h3.6c0.3,0,0.5-0.1,0.7-0.1c0.2-0.2,0.3-0.4,0.3-0.8c0-0.4-0.1-0.7-0.3-0.8c-0.1-0.1-13-0.2-13.3-0.2h9V67.8z
		 M32.1,70.5c-1.1,0-1.9-0.1-2.3-0.2c-0.5-0.1-0.7-0.4-0.9-0.8c-0.1-0.3-0.1-0.8-0.1-1.7c0-0.9,0-1.4,0.1-1.7
		c0.1-0.4-12.3-0.7-11.8-0.8c0.5-0.1,13.9-0.2,15-0.2c1.1,0,1.9,0.1,2.3,0.2c0.4,0.1,0.7,0.4,0.9,0.8c0.1,0.3,0.1,0.8,0.1,1.7
		c0,0.9,0,1.4-0.1,1.7c-0.1,0.4-0.4,0.7-0.9,0.8C34,70.4,33.2,70.5,32.1,70.5L32.1,70.5z M32.1,69.7c1.2,0,1.9-0.1,2.2-0.3
		c0.2-0.2,0.3-0.8,0.3-1.7c0-1-0.1-1.6-0.3-1.8c-0.2-0.2-0.9-0.3-2.2-0.3c-1.2,0-1.9,0.1-2.2,0.3c-0.2,0.2-0.3,0.8-0.3,1.8
		c0,1,0.1,1.5,0.3,1.7C30.2,69.7,30.9,69.7,32.1,69.7L32.1,69.7z M37.2,68.8c0,0.4,0.1,0.7,0.3,0.8c0.2,0.1,0.9,0.1,1.8,0.1
		s1.6-0.1,1.8-0.1c0.2-0.1,0.3-0.3,0.3-0.8v-3.7h0.8v3.7c0,0.7-0.1,1.2-0.4,1.3c-0.3,0.2-1.2,0.3-2.5,0.3s-2.2-0.1-2.5-0.3
		c-0.3-0.2-0.5-0.6-0.5-1.4v-3.7h0.8V68.8z M43.4,70.4v-5.3h4.3c0.5,0,0.9,0.1,1.1,0.4s0.4,0.7,0.4,1.3c0,0.6-0.1,1-0.4,1.2
		c-0.3,0.3-0.7,0.4-1.1,0.4h-3.5v1.9H43.4z M44.2,67.8h3.5c0.2,0,0.4-0.1,0.5-0.3c0.1-0.1,0.2-0.4,0.2-0.7c0-0.3-0.1-0.6-0.2-0.7
		c-0.1-0.2-0.3-0.3-0.5-0.3h-3.5V67.8z M52,55.7l3.3,6.5h2.1l3.1-6.5c0,2.2,0,4.3,0,6.5h2.6v-8.3h-4.3c-0.8,1.7-1.6,3.4-2.4,5.1
		c-0.8-1.7-1.6-3.4-2.4-5.1h-4.6v8.3H52C52,60,52,57.9,52,55.7L52,55.7z M22.4,58c0,2-0.3,3.2-0.7,3.6c-0.5,0.4-2.1,0.6-4.8,0.6
		c-1.9,0-3.2-0.1-3.8-0.2c-0.7-0.2-1.2-0.6-1.4-1.2c-0.2-0.5-0.3-1.4-0.3-2.9c0-2,0.3-3.2,0.7-3.6c0.5-0.4,2.1-0.7,4.7-0.7
		s4.2,0.2,4.8,0.6C22.2,54.8,22.4,56,22.4,58L22.4,58z M14,58c0,1.1,0.1,1.7,0.4,1.9c0.3,0.2,1.1,0.3,2.6,0.3c1.5,0,2.3-0.1,2.6-0.3
		c0.3-0.2,0.4-0.8,0.4-1.9c0-1-0.1-1.7-0.4-1.8c-0.3-0.2-1.1-0.3-2.6-0.3c-1.5,0-2.3,0.1-2.6,0.3C14.2,56.4,14,57,14,58L14,58z
		 M24.6,53.9H32c0.9,0,1.6,0.2,2,0.5s0.6,1,0.6,1.9c0,0.7-0.1,1.2-0.3,1.6s-0.5,0.6-0.9,0.8c0.5,0.2,0.8,0.4,0.9,0.6
		c0.2,0.2,0.2,0.6,0.2,1.1v1.8H32v-1.5c0-0.2-0.1-0.4-0.2-0.5c-0.1-0.2-0.4-0.3-0.7-0.3h-4v2.3h-2.6V53.9z M27.1,56.1v1.7h4.1
		c0.3,0,0.5-0.1,0.6-0.2c0.1-0.1,0.2-0.3,0.2-0.7c0-0.3-0.1-0.5-0.2-0.7c-0.1-0.1-0.3-0.2-0.6-0.2H27.1z M47.3,53.9v5
		c0,1.5-0.3,2.4-1,2.8c-0.6,0.4-2,0.5-4.3,0.5c-2.3,0-3.7-0.2-4.3-0.5c-0.7-0.4-1-1.3-1-2.8v-5h2.6v5c0,0.5,0.1,0.8,0.4,1
		c0.3,0.2,1.1,0.3,2.3,0.3s1.9-0.1,2.2-0.2c0.3-0.2,0.5-0.5,0.5-1v-5H47.3z"/>
	<path class="st0" d="M27.7,17.6L27.1,17c-2.9-3.3-7.1-5-11.3-4.8H9.7L0.9,1.5h7.3C12.6,1.4,17,3.3,19.9,7h43.1v10.6
		C51.3,17.6,39.5,17.6,27.7,17.6L27.7,17.6z M30.3,21.2h20.3v10.6H38.2c-2.9-3.4-7.2-5.1-11.4-5h-4.8L13,16.1h5.9
		C23.2,16.1,27.4,17.8,30.3,21.2L30.3,21.2z M41.8,36.6L41.8,36.6l6.9,9.3c-2.4-2.5-5.8-4-9.1-4.3l0,0c-3.4-0.4-6.7-1.9-9.2-4.5
		l-5.2-6.3h4.5C34.4,30.7,38.9,32.7,41.8,36.6L41.8,36.6z"/>
</g>
</svg>
