<?xml version="1.0" encoding="utf-8"?>
<!-- Generator: Adobe Illustrator 21.1.0, SVG Export Plug-In . SVG Version: 6.00 Build 0)  -->
<svg version="1.1" id="Слой_1" xmlns="http://www.w3.org/2000/svg" xmlns:xlink="http://www.w3.org/1999/xlink" x="0px" y="0px"
	 viewBox="0 0 130 30" style="enable-background:new 0 0 130 30;" xml:space="preserve">
<style type="text/css">
	.st0{fill:#141515;}
</style>
<g>
	<polygon class="st0" points="24.8,0.3 16.6,10.3 16.6,18 31.3,0.3 	"/>
	<polygon class="st0" points="11.8,3.5 0.4,17.4 0.4,28.2 20.6,3.5 	"/>
	<path class="st0" d="M26.8,18.3c-0.7-0.7-1.1-1.8-1.1-3.3c0-1.5,0.4-2.6,1.1-3.3c0.8-0.7,1.9-1,3.3-1h1.4c0.9,0,1.7,0.2,2.4,0.7
		c0.7,0.5,1,1.1,1,1.9c0,0.2-0.1,0.4-0.2,0.5C34.7,14,34.5,14,34.4,14h-0.7c-0.4,0-0.7-0.2-0.9-0.7c-0.3-0.6-0.8-0.9-1.5-0.9h-1.1
		c-0.9,0-1.4,0.2-1.8,0.5C28.1,13.3,28,14,28,15c0,1,0.2,1.7,0.5,2.1c0.3,0.4,0.9,0.6,1.8,0.6h1.2c0.7,0,1.2-0.3,1.5-1
		c0.2-0.4,0.5-0.7,0.9-0.7h0.7c0.1,0,0.2,0,0.3,0c0.1,0.1,0.1,0.1,0.2,0.2c0.1,0.1,0.1,0.3,0.1,0.4c0,0.8-0.3,1.5-1,2
		c-0.7,0.5-1.5,0.7-2.4,0.7h-1.5C28.7,19.4,27.6,19,26.8,18.3L26.8,18.3z"/>
	<path class="st0" d="M40,12.9c-0.4,0.5-0.6,1.2-0.6,2.1c0,1,0.2,1.7,0.6,2.2s1,0.7,2,0.7c0.9,0,1.6-0.2,2-0.7s0.6-1.2,0.6-2.2
		c0-0.9-0.2-1.6-0.6-2.1s-1-0.7-2-0.7C41.1,12.2,40.4,12.4,40,12.9L40,12.9z M38.4,18.5L38.4,18.5c-0.8-0.7-1.2-1.9-1.2-3.4
		c0-1.6,0.4-2.7,1.2-3.4c0.8-0.7,2-1.1,3.6-1.1s2.8,0.4,3.6,1.1c0.8,0.7,1.2,1.8,1.2,3.4c0,1.6-0.4,2.7-1.2,3.4c-0.8,0.7-2,1-3.6,1
		S39.2,19.2,38.4,18.5L38.4,18.5z"/>
	<path class="st0" d="M48.8,18.8l1.5-5.8c0.4-1.6,1.7-2.3,4-2.4h3c0.1,0,0.3,0.1,0.4,0.2c0.1,0.1,0.1,0.3,0.1,0.4v7.5
		c0,0.1-0.1,0.3-0.2,0.4c-0.1,0.1-0.2,0.2-0.4,0.2h-1.1c-0.1,0-0.3-0.1-0.4-0.2c-0.1-0.1-0.2-0.3-0.2-0.4v-6.3H54
		c-0.4,0-0.7,0.1-1,0.3c-0.3,0.2-0.5,0.5-0.6,0.9l-1.4,5.1c-0.1,0.2-0.1,0.3-0.3,0.4c-0.1,0.1-0.3,0.2-0.5,0.2h-1.2
		c-0.1,0-0.2-0.1-0.3-0.2c-0.1-0.1-0.1-0.1-0.1-0.2C48.8,18.9,48.8,18.9,48.8,18.8L48.8,18.8z"/>
	<path class="st0" d="M60.9,18.8v-7.5c0-0.1,0.1-0.3,0.2-0.4c0.1-0.1,0.3-0.2,0.4-0.2h1.1c0.1,0,0.3,0.1,0.4,0.2
		c0.1,0.1,0.1,0.3,0.1,0.4V14h4.1v-2.7c0-0.1,0.1-0.3,0.2-0.4c0.1-0.1,0.3-0.2,0.4-0.2H69c0.1,0,0.3,0.1,0.4,0.2
		c0.1,0.1,0.2,0.3,0.2,0.4v7.5c0,0.1-0.1,0.3-0.2,0.4c-0.1,0.1-0.3,0.2-0.4,0.2h-1.1c-0.1,0-0.3-0.1-0.4-0.2
		c-0.1-0.1-0.2-0.2-0.2-0.4v-3.1h-4.1v3.1c0,0.2-0.1,0.3-0.1,0.4c-0.1,0.1-0.3,0.2-0.4,0.2h-1.1c-0.1,0-0.3-0.1-0.4-0.2
		C61,19.1,60.9,18.9,60.9,18.8L60.9,18.8z"/>
	<path class="st0" d="M72.7,18.8v-7.5c0-0.1,0.1-0.3,0.2-0.4c0.1-0.1,0.2-0.2,0.4-0.2h6.9c0.1,0,0.3,0.1,0.4,0.2
		c0.1,0.1,0.2,0.3,0.2,0.4v0.6c0,0.2-0.1,0.3-0.2,0.4c-0.1,0.1-0.3,0.2-0.4,0.2H75v1.8h4.5c0.2,0,0.3,0.1,0.4,0.1
		c0.1,0.1,0.2,0.3,0.2,0.4v0.6c0,0.1-0.1,0.3-0.2,0.4c-0.1,0.1-0.2,0.2-0.4,0.2H75v1.8h5.2c0.2,0,0.3,0.1,0.4,0.2
		c0.1,0.1,0.2,0.2,0.2,0.4v0.6c0,0.1-0.1,0.3-0.2,0.4c-0.1,0.1-0.3,0.2-0.4,0.2h-6.9c-0.2,0-0.3-0.1-0.4-0.2
		C72.8,19.1,72.7,18.9,72.7,18.8L72.7,18.8z"/>
	<path class="st0" d="M82.9,13.3v-2c0-0.1,0.1-0.3,0.2-0.4c0.1-0.1,0.3-0.2,0.4-0.2h1.1c0.1,0,0.3,0.1,0.4,0.2
		c0.1,0.1,0.2,0.3,0.2,0.4v2c0,1,0.5,1.5,1.4,1.5h2.3v-3.5c0-0.1,0.1-0.3,0.2-0.4c0.1-0.1,0.3-0.2,0.4-0.2h1.1
		c0.2,0,0.3,0.1,0.4,0.2c0.1,0.1,0.1,0.3,0.1,0.4v7.5c0,0.1-0.1,0.3-0.2,0.4s-0.2,0.2-0.4,0.2h-1.1c-0.1,0-0.3-0.1-0.4-0.2
		c-0.1-0.1-0.2-0.2-0.2-0.4v-2.3h-2.3c-1.1,0-2-0.3-2.7-0.8C83.3,15.1,82.9,14.4,82.9,13.3L82.9,13.3z"/>
	<path class="st0" d="M94.4,18.8v-7.5c0-0.1,0-0.3,0.1-0.4c0.1-0.1,0.3-0.2,0.4-0.2h1.1c0.2,0,0.3,0.1,0.4,0.2
		c0.1,0.1,0.2,0.3,0.2,0.4V14h4.1v-2.7c0-0.1,0.1-0.3,0.2-0.4c0.1-0.1,0.3-0.2,0.4-0.2h1.1c0.2,0,0.3,0.1,0.4,0.2
		c0.1,0.1,0.1,0.3,0.1,0.4v7.5c0,0.1-0.1,0.3-0.2,0.4c-0.1,0.1-0.2,0.2-0.4,0.2h-1.1c-0.1,0-0.3-0.1-0.4-0.2
		c-0.1-0.1-0.2-0.2-0.2-0.4v-3.1h-4.1v3.1c0,0.2-0.1,0.3-0.2,0.4c-0.1,0.1-0.2,0.2-0.4,0.2h-1.1c-0.2,0-0.3-0.1-0.4-0.2
		C94.4,19.1,94.4,18.9,94.4,18.8L94.4,18.8z"/>
	<path class="st0" d="M115.3,18.8v-7.5c0-0.1,0.1-0.3,0.2-0.4c0.1-0.1,0.2-0.2,0.4-0.2h1.1c0.2,0,0.3,0.1,0.4,0.2
		c0.1,0.1,0.2,0.3,0.2,0.4v7.5c0,0.1-0.1,0.3-0.2,0.4c-0.1,0.1-0.2,0.2-0.4,0.2h-1.1c-0.2,0-0.3-0.1-0.4-0.2
		C115.4,19.1,115.3,18.9,115.3,18.8L115.3,18.8z M108.4,17.6L108.4,17.6h2.5c0.7,0,1-0.4,1-1.1c0-0.8-0.3-1.2-1-1.2h-2.5V17.6z
		 M106.1,18.8L106.1,18.8v-7.5c0-0.1,0.1-0.3,0.2-0.4c0.1-0.1,0.3-0.2,0.4-0.2h1.1c0.2,0,0.3,0.1,0.4,0.2c0.1,0.1,0.2,0.3,0.2,0.4
		v2.4h2.5c0.9,0,1.7,0.3,2.3,0.8c0.6,0.5,0.9,1.2,0.9,2.1c0,0.9-0.3,1.6-0.9,2.1c-0.6,0.5-1.4,0.8-2.3,0.8h-4.2
		c-0.1,0-0.3-0.1-0.4-0.2C106.2,19.1,106.1,18.9,106.1,18.8L106.1,18.8z"/>
	<path class="st0" d="M123.2,8.3c0-0.2,0.1-0.3,0.3-0.3h0.5c0.2,0,0.3,0.1,0.4,0.3c0.1,0.3,0.4,0.4,0.8,0.4s0.7-0.1,0.8-0.4
		c0.1-0.2,0.2-0.3,0.4-0.3h0.5c0.2,0,0.3,0.1,0.3,0.3c0,0.5-0.2,1-0.6,1.3c-0.4,0.3-0.9,0.5-1.4,0.5s-1.1-0.2-1.4-0.5
		C123.4,9.2,123.2,8.8,123.2,8.3L123.2,8.3z M120.8,18.8L120.8,18.8v-7.5c0-0.1,0.1-0.3,0.2-0.4c0.1-0.1,0.3-0.2,0.4-0.2h1.1
		c0.2,0,0.3,0.1,0.4,0.2c0.1,0.1,0.2,0.3,0.2,0.4v6l3.4-6c0.1-0.1,0.2-0.3,0.4-0.4c0.2-0.1,0.3-0.2,0.5-0.2h1.8
		c0.2,0,0.3,0.1,0.4,0.2c0.1,0.1,0.2,0.3,0.2,0.4v7.5c0,0.1-0.1,0.3-0.2,0.4c-0.1,0.1-0.3,0.2-0.4,0.2h-1.1c-0.2,0-0.3-0.1-0.4-0.2
		s-0.2-0.3-0.2-0.4v-5.6l-3.1,5.6c-0.1,0.1-0.2,0.3-0.4,0.4c-0.2,0.1-0.3,0.2-0.5,0.2h-2c-0.1,0-0.3-0.1-0.4-0.2
		C120.8,19.1,120.8,18.9,120.8,18.8L120.8,18.8z"/>
	<path class="st0" d="M90,26.6v-1.7h0.5v1.7l1.6-1.7h0.4l-1.3,1.4l0.8,1.1c0.1,0.1,0.1,0.1,0.1,0.2c0.1,0.1,0.1,0.1,0.2,0.1
		s0.1,0.1,0.2,0.1c0.1,0,0.1,0.1,0.2,0.1h0.2v0.3c-0.1,0-0.1,0-0.2,0c-0.1,0-0.1,0-0.2,0c-0.2,0-0.3-0.1-0.4-0.1
		c-0.1-0.1-0.3-0.3-0.3-0.4l-0.8-1L90.6,27v1.1H90V27l-0.4-0.4l-0.7,1c-0.1,0.1-0.2,0.3-0.3,0.4c-0.1,0.1-0.3,0.1-0.5,0.1
		c-0.1,0-0.1,0-0.2,0c-0.1,0-0.1,0-0.2,0v-0.3h0.2c0,0,0.1,0,0.1-0.1c0.1,0,0.1-0.1,0.2-0.1s0.1-0.1,0.2-0.1
		c0.1-0.1,0.1-0.1,0.1-0.2l0.8-1.1l-1.2-1.4h0.4L90,26.6z"/>
	<polygon class="st0" points="95.7,24.9 96.4,24.9 96.4,28.2 95.8,28.2 95.8,25.3 94.2,28.2 93.6,28.2 93.6,24.9 94.1,24.9 
		94.1,27.8 	"/>
	<path class="st0" d="M100.6,28.2H100l-1-2.6h0l-0.7,1.8c-0.1,0.2-0.1,0.3-0.2,0.4C98,27.9,98,28,97.9,28c-0.1,0.1-0.1,0.1-0.2,0.1
		c-0.1,0-0.1,0-0.2,0c-0.2,0-0.3-0.1-0.4-0.1l0.1-0.3c0,0,0.1,0.1,0.1,0.1c0.1,0,0.1,0.1,0.2,0.1s0.1,0,0.1-0.1
		c0.1-0.1,0.1-0.1,0.1-0.1c0-0.1,0.1-0.1,0.1-0.2c0-0.1,0.1-0.1,0.1-0.1l1-2.4h0.4L100.6,28.2z"/>
	<path class="st0" d="M103.8,26.5c0-0.3,0-0.5-0.1-0.7c-0.1-0.2-0.1-0.3-0.3-0.4c-0.1-0.1-0.2-0.2-0.3-0.2c-0.1-0.1-0.2-0.1-0.3-0.1
		c-0.1,0-0.3,0-0.4,0.1c-0.1,0-0.3,0.1-0.3,0.2c-0.1,0.1-0.2,0.3-0.3,0.4c-0.1,0.2-0.1,0.4-0.1,0.7c0,0.3,0,0.5,0.1,0.7
		c0.1,0.2,0.1,0.3,0.3,0.4c0.1,0.1,0.2,0.2,0.3,0.2c0.1,0,0.2,0.1,0.4,0.1c0.1,0,0.2,0,0.3-0.1c0.1,0,0.3-0.1,0.3-0.2
		c0.1-0.1,0.2-0.3,0.3-0.4C103.8,27.1,103.8,26.8,103.8,26.5L103.8,26.5z M104.4,26.5L104.4,26.5c0,0.2-0.1,0.4-0.1,0.7
		c-0.1,0.2-0.2,0.4-0.3,0.5c-0.1,0.1-0.3,0.3-0.5,0.4c-0.2,0.1-0.4,0.1-0.7,0.1c-0.3,0-0.5,0-0.7-0.1c-0.2-0.1-0.4-0.2-0.5-0.4
		c-0.1-0.1-0.3-0.3-0.3-0.5c-0.1-0.2-0.1-0.4-0.1-0.6s0-0.4,0.1-0.7c0.1-0.2,0.2-0.4,0.3-0.5c0.1-0.1,0.3-0.3,0.5-0.4
		c0.2-0.1,0.5-0.1,0.7-0.1c0.3,0,0.5,0,0.7,0.1c0.2,0.1,0.4,0.2,0.5,0.4c0.1,0.2,0.3,0.3,0.3,0.5C104.4,26.1,104.4,26.3,104.4,26.5
		L104.4,26.5z"/>
	<path class="st0" d="M106.5,24.3c-0.1,0-0.3,0-0.4-0.1c-0.1,0-0.2-0.1-0.3-0.2c-0.1-0.1-0.1-0.2-0.1-0.4v-0.1h0.6c0,0,0,0,0,0.1
		c0,0,0,0,0,0.1c0,0.1,0,0.2,0.1,0.2c0,0.1,0.1,0.1,0.1,0.1c0.1,0,0.1,0,0.2,0s0.1,0,0.1,0c0.1,0,0.1,0,0.1,0s0.1,0,0.2,0
		c0.1,0,0.1-0.1,0.1-0.1c0,0,0.1-0.1,0.1-0.2c0,0,0,0,0-0.1c0,0,0-0.1,0-0.1h0.6v0.1c0,0.2-0.1,0.3-0.1,0.4
		c-0.1,0.1-0.2,0.2-0.3,0.2c-0.1,0-0.2,0.1-0.4,0.1c-0.1,0-0.2,0-0.3,0C106.7,24.4,106.6,24.4,106.5,24.3L106.5,24.3z M107.5,24.9
		L107.5,24.9h0.7v3.2h-0.5v-2.8l-1.6,2.8h-0.7v-3.2h0.6v2.8L107.5,24.9z"/>
	<path class="st0" d="M112.1,26.8c0,0.2,0,0.3,0.1,0.5c0.1,0.1,0.1,0.3,0.2,0.3c0.1,0.1,0.2,0.2,0.3,0.2c0.1,0.1,0.2,0.1,0.3,0.1
		c0.1,0,0.3,0,0.4-0.1c0.1-0.1,0.2-0.1,0.3-0.3c0.1-0.1,0.2-0.2,0.2-0.4c0-0.2,0.1-0.4,0.1-0.6c0-0.3,0-0.5-0.1-0.6
		c-0.1-0.2-0.1-0.3-0.2-0.4c-0.1-0.1-0.2-0.2-0.3-0.2c-0.1-0.1-0.3-0.1-0.4-0.1c-0.1,0-0.2,0-0.3,0.1c-0.1,0.1-0.2,0.1-0.3,0.2
		c-0.1,0.1-0.1,0.2-0.2,0.3c0,0.1-0.1,0.3-0.1,0.4V26.8z M111.6,24.9L111.6,24.9h0.5v0.5h0c0.1-0.4,0.5-0.6,1-0.6
		c0.2,0,0.4,0,0.6,0.1c0.2,0.1,0.3,0.2,0.5,0.3c0.1,0.1,0.2,0.3,0.3,0.5c0.1,0.2,0.1,0.4,0.1,0.7c0,0.3,0,0.5-0.1,0.7
		c-0.1,0.2-0.2,0.4-0.3,0.5c-0.1,0.1-0.3,0.3-0.5,0.3c-0.2,0.1-0.4,0.1-0.6,0.1c-0.1,0-0.2,0-0.3,0c-0.1,0-0.2-0.1-0.3-0.1
		c-0.1-0.1-0.2-0.1-0.2-0.2c-0.1-0.1-0.1-0.2-0.2-0.3h0v2.1h-0.5V24.9z"/>
	<path class="st0" d="M117.4,26.9c0-0.1-0.1-0.1-0.1-0.2c-0.1-0.1-0.1-0.1-0.2-0.2c-0.1-0.1-0.1-0.1-0.2-0.2c-0.1,0-0.2-0.1-0.3-0.1
		c-0.1,0-0.3,0-0.3,0.1c-0.1,0-0.2,0.1-0.3,0.2c-0.1,0.1-0.1,0.2-0.2,0.3c-0.1,0.1-0.1,0.2-0.1,0.3c0,0.1,0,0.3,0.1,0.4
		c0.1,0.1,0.1,0.2,0.2,0.3c0.1,0.1,0.2,0.1,0.3,0.1c0.1,0.1,0.2,0.1,0.3,0.1c0.1,0,0.1,0,0.2,0c0.1,0,0.2-0.1,0.3-0.1
		c0.1-0.1,0.1-0.1,0.2-0.2c0.1-0.1,0.1-0.1,0.1-0.2V26.9z M116.7,24.9L116.7,24.9c0.3,0,0.6,0,0.7,0.1c0.2,0.1,0.3,0.2,0.4,0.3
		c0.1,0.1,0.1,0.3,0.1,0.5c0,0.2,0,0.4,0,0.6v1.8h-0.5v-0.3c-0.1,0.1-0.3,0.2-0.5,0.3c-0.2,0.1-0.4,0.1-0.6,0.1
		c-0.2,0-0.3,0-0.5-0.1c-0.1-0.1-0.3-0.1-0.4-0.3c-0.1-0.1-0.1-0.2-0.2-0.3c-0.1-0.1-0.1-0.3-0.1-0.4c0-0.1,0-0.3,0.1-0.4
		c0.1-0.1,0.1-0.3,0.2-0.4c0.1-0.1,0.2-0.2,0.4-0.3c0.1-0.1,0.3-0.1,0.5-0.1c0.2,0,0.4,0.1,0.5,0.1c0.2,0.1,0.3,0.2,0.4,0.3v-0.3
		c0-0.4-0.1-0.6-0.2-0.8c-0.1-0.2-0.3-0.3-0.6-0.3c-0.1,0-0.2,0-0.3,0.1c-0.1,0-0.2,0.1-0.2,0.1c-0.1,0.1-0.1,0.1-0.2,0.2
		s-0.1,0.2-0.2,0.3l-0.3-0.3c0.1-0.1,0.1-0.1,0.2-0.2c0.1-0.1,0.2-0.1,0.3-0.2c0.1-0.1,0.2-0.1,0.3-0.1S116.5,24.9,116.7,24.9
		L116.7,24.9z"/>
	<path class="st0" d="M120.1,24.3c-0.1,0-0.3,0-0.4-0.1c-0.1,0-0.2-0.1-0.3-0.2c-0.1-0.1-0.1-0.2-0.1-0.4v-0.1h0.6c0,0,0,0,0,0.1
		c0,0,0,0,0,0.1c0,0.1,0,0.2,0.1,0.2c0,0.1,0.1,0.1,0.1,0.1c0.1,0,0.1,0,0.2,0s0.1,0,0.1,0c0,0,0.1,0,0.1,0s0.1,0,0.1,0
		c0.1,0,0.1-0.1,0.1-0.1c0.1,0,0.1-0.1,0.1-0.2c0,0,0,0,0-0.1c0,0,0-0.1,0-0.1h0.6v0.1c0,0.2-0.1,0.3-0.1,0.4
		c-0.1,0.1-0.2,0.2-0.3,0.2c-0.1,0-0.3,0.1-0.4,0.1c-0.1,0-0.2,0-0.3,0S120.2,24.4,120.1,24.3L120.1,24.3z M121.2,24.9L121.2,24.9
		h0.6v3.2h-0.5v-2.8l-1.6,2.8H119v-3.2h0.5v2.8L121.2,24.9z"/>
	<path class="st0" d="M125.4,26.5c0-0.3-0.1-0.5-0.1-0.7c-0.1-0.2-0.1-0.3-0.3-0.4c-0.1-0.1-0.2-0.2-0.3-0.2
		c-0.1-0.1-0.2-0.1-0.3-0.1c-0.1,0-0.3,0-0.4,0.1c-0.1,0-0.2,0.1-0.3,0.2s-0.2,0.3-0.3,0.4c-0.1,0.2-0.1,0.4-0.1,0.7
		c0,0.3,0,0.5,0.1,0.7c0.1,0.2,0.1,0.3,0.3,0.4s0.2,0.2,0.3,0.2s0.3,0.1,0.4,0.1c0.1,0,0.2,0,0.3-0.1c0.1,0,0.3-0.1,0.3-0.2
		c0.1-0.1,0.2-0.3,0.3-0.4C125.4,27.1,125.4,26.8,125.4,26.5L125.4,26.5z M126,26.5L126,26.5c0,0.2,0,0.4-0.1,0.7
		c-0.1,0.2-0.2,0.4-0.3,0.5c-0.1,0.1-0.3,0.3-0.5,0.4c-0.2,0.1-0.4,0.1-0.7,0.1s-0.5,0-0.7-0.1c-0.2-0.1-0.4-0.2-0.5-0.4
		c-0.1-0.1-0.3-0.3-0.3-0.5c-0.1-0.2-0.1-0.4-0.1-0.6s0-0.4,0.1-0.7c0.1-0.2,0.2-0.4,0.3-0.5c0.1-0.1,0.3-0.3,0.5-0.4
		c0.2-0.1,0.5-0.1,0.7-0.1s0.5,0,0.7,0.1c0.2,0.1,0.4,0.2,0.5,0.4c0.1,0.2,0.3,0.3,0.3,0.5C126,26.1,126,26.3,126,26.5L126,26.5z"/>
	<polygon class="st0" points="129.1,24.9 129.1,26.4 127.5,26.4 127.5,24.9 127,24.9 127,28.2 127.5,28.2 127.5,26.6 129.1,26.6 
		129.1,28.2 129.6,28.2 129.6,24.9 	"/>
</g>
</svg>
